<?xml version="1.0" encoding="UTF-8"?>
<svg width="30px" height="22px" viewBox="0 0 30 22" version="1.1" xmlns="http://www.w3.org/2000/svg" xmlns:xlink="http://www.w3.org/1999/xlink">
    <!-- Generator: Sketch 51 (57462) - http://www.bohemiancoding.com/sketch -->
    <title>youtube</title>
    <desc>Created with Sketch.</desc>
    <defs></defs>
    <g id="Page-1" stroke="none" stroke-width="1" fill="none" fill-rule="evenodd" stroke-linecap="round" stroke-linejoin="round">
        <g id="home---image" transform="translate(-587.000000, -3309.000000)" stroke="#CA0034" stroke-width="2">
            <g id="footer" transform="translate(0.000000, 3194.000000)">
                <g id="youtube" transform="translate(587.000000, 116.000000)">
                    <path d="M28.175,3.025 C27.8727635,1.81748923 26.9477478,0.863864823 25.75,0.525 C23.6,0 15,0 15,0 C15,0 6.4,0 4.25,0.575 C3.05225219,0.913864823 2.12723652,1.86748923 1.825,3.075 C1.4315182,5.25694439 1.23904491,7.47038719 1.25,9.6875 C1.23597412,11.9213062 1.42845961,14.1516273 1.825,16.35 C2.15793788,17.5190704 3.07754232,18.4291944 4.25,18.75 C6.4,19.325 15,19.325 15,19.325 C15,19.325 23.6,19.325 25.75,18.75 C26.9477478,18.4111352 27.8727635,17.4575108 28.175,16.25 C28.5654464,14.0844856 28.7579076,11.8879178 28.75,9.6875 C28.7640259,7.45369377 28.5715404,5.22337274 28.175,3.025 Z" id="Shape"></path>
                    <polygon id="Shape" points="12.1875 13.775 19.375 9.6875 12.1875 5.6"></polygon>
                </g>
            </g>
        </g>
    </g>
</svg>